<!DOCTYPE svg PUBLIC "-//W3C//DTD SVG 1.1//EN" "http://www.w3.org/Graphics/SVG/1.1/DTD/svg11.dtd">
<!-- Uploaded to: SVG Repo, www.svgrepo.com, Transformed by: SVG Repo Mixer Tools -->
<svg height="125px" width="125px" version="1.1" id="Capa_1" xmlns="http://www.w3.org/2000/svg" xmlns:xlink="http://www.w3.org/1999/xlink" viewBox="0 0 60 60" xml:space="preserve" fill="#000000" transform="rotate(270)" stroke="#000000" stroke-width="0.0006000000000000001">
<g id="SVGRepo_bgCarrier" stroke-width="0"/>
<g id="SVGRepo_tracerCarrier" stroke-linecap="round" stroke-linejoin="round"/>
<g id="SVGRepo_iconCarrier"> <g> <path style="fill:#000000;" d="M23.5,60c-0.552,0-1-0.448-1-1V21c0-0.552,0.448-1,1-1s1,0.448,1,1v38 C24.5,59.552,24.052,60,23.5,60z"/> <path style="fill:#000000;" d="M23.5,60c-0.256,0-0.512-0.098-0.707-0.293c-0.391-0.391-0.391-1.023,0-1.414l12-12 c0.391-0.391,1.023-0.391,1.414,0s0.391,1.023,0,1.414l-12,12C24.012,59.902,23.756,60,23.5,60z"/> <path style="fill:#000000;" d="M23.5,60c-0.256,0-0.512-0.098-0.707-0.293l-12-12c-0.391-0.391-0.391-1.023,0-1.414 s1.023-0.391,1.414,0l12,12c0.391,0.391,0.391,1.023,0,1.414C24.012,59.902,23.756,60,23.5,60z"/> <path style="fill:#000000;" d="M23.5,60c-0.256,0-0.512-0.098-0.707-0.293l-12-12c-0.391-0.391-0.391-1.023,0-1.414 s1.023-0.391,1.414,0l12,12c0.391,0.391,0.391,1.023,0,1.414C24.012,59.902,23.756,60,23.5,60z"/> <path style="fill:#000000;" d="M36.5,40c-0.552,0-1-0.448-1-1V1c0-0.552,0.448-1,1-1s1,0.448,1,1v38C37.5,39.552,37.052,40,36.5,40 z"/> <path style="fill:#000000;" d="M24.5,14c-0.256,0-0.512-0.098-0.707-0.293c-0.391-0.391-0.391-1.023,0-1.414l12-12 c0.391-0.391,1.023-0.391,1.414,0s0.391,1.023,0,1.414l-12,12C25.012,13.902,24.756,14,24.5,14z"/> <path style="fill:#000000;" d="M48.5,14c-0.256,0-0.512-0.098-0.707-0.293l-12-12c-0.391-0.391-0.391-1.023,0-1.414 s1.023-0.391,1.414,0l12,12c0.391,0.391,0.391,1.023,0,1.414C49.012,13.902,48.756,14,48.5,14z"/> <path style="fill:#000000;" d="M48.5,14c-0.256,0-0.512-0.098-0.707-0.293l-12-12c-0.391-0.391-0.391-1.023,0-1.414 s1.023-0.391,1.414,0l12,12c0.391,0.391,0.391,1.023,0,1.414C49.012,13.902,48.756,14,48.5,14z"/> </g> </g>
</svg>